<?xml version="1.0" standalone="no"?>
<!DOCTYPE svg PUBLIC "-//W3C//DTD SVG 20010904//EN"
 "http://www.w3.org/TR/2001/REC-SVG-20010904/DTD/svg10.dtd">
<svg version="1.0" xmlns="http://www.w3.org/2000/svg"
 width="500.000000pt" height="500.000000pt" viewBox="0 0 500.000000 500.000000"
 preserveAspectRatio="xMidYMid meet">

<g transform="translate(0.000000,500.000000) scale(0.100000,-0.100000)"
fill="#000000" stroke="none">
<path d="M813 3413 c-70 -2 -123 -8 -123 -13 0 -6 14 -10 31 -10 17 0 39 -5
50 -10 18 -10 19 -24 19 -250 0 -236 0 -239 -22 -255 -13 -8 -40 -18 -60 -22
-21 -3 -38 -10 -38 -15 0 -6 79 -8 208 -6 199 3 210 4 257 28 38 19 56 36 73
70 40 80 26 140 -49 203 l-41 35 27 18 c30 20 55 63 55 96 0 39 -38 88 -83
108 -49 21 -135 28 -304 23z m239 -63 c28 -28 30 -36 25 -78 -7 -65 -40 -92
-113 -92 l-54 0 0 93 c0 52 3 97 7 100 3 4 28 7 55 7 42 0 54 -5 80 -30z m-4
-230 c76 -46 82 -184 11 -234 -36 -25 -95 -21 -124 9 -24 23 -25 31 -25 135
l0 110 53 0 c35 0 63 -7 85 -20z"/>
<path d="M2965 3354 c-8 -74 -2 -115 10 -69 17 69 27 75 120 75 l85 0 0 -233
c0 -262 0 -262 -74 -274 -19 -3 -33 -9 -30 -14 8 -13 324 -12 324 1 0 6 -9 10
-20 10 -33 0 -79 29 -85 53 -3 12 -4 119 -3 237 l3 215 79 3 c90 3 110 -7 120
-64 4 -19 11 -34 16 -34 9 0 7 42 -6 125 l-4 30 -264 0 -265 0 -6 -61z"/>
<path d="M1350 3401 c0 -5 13 -12 30 -16 56 -12 60 -28 60 -260 0 -115 -3
-220 -6 -232 -6 -23 -49 -43 -90 -43 -13 0 -24 -4 -24 -10 0 -16 480 -13 484
3 3 6 7 42 10 80 5 67 -7 92 -19 38 -3 -16 -18 -41 -32 -55 -23 -24 -33 -26
-107 -26 -51 0 -87 5 -94 12 -8 8 -12 47 -12 110 l0 98 74 0 c79 0 106 -13
106 -51 0 -10 5 -19 10 -19 6 0 10 38 10 95 0 57 -4 95 -10 95 -5 0 -10 -8
-10 -18 0 -37 -32 -52 -108 -52 l-72 0 0 105 0 105 83 0 c94 0 111 -10 123
-68 4 -18 10 -32 15 -32 10 0 12 58 3 113 l-7 37 -208 0 c-121 0 -209 -4 -209
-9z"/>
<path d="M1920 3400 c0 -5 6 -10 14 -10 7 0 25 -9 40 -21 l26 -20 0 -227 c0
-125 -4 -233 -9 -240 -4 -7 -21 -16 -36 -20 -16 -5 -30 -13 -33 -20 -3 -9 33
-12 142 -12 80 0 146 4 146 9 0 11 -25 21 -49 21 -39 0 -51 31 -51 133 l0 97
38 0 c38 0 40 -2 113 -112 81 -124 104 -142 197 -154 36 -4 52 -3 52 5 0 6 -6
11 -13 11 -22 0 -71 59 -136 164 l-62 99 42 37 c40 34 43 40 47 96 3 50 0 64
-20 94 -13 19 -41 45 -63 57 -37 21 -52 23 -212 23 -109 0 -173 -4 -173 -10z
m291 -26 c31 -16 68 -81 69 -119 0 -83 -51 -138 -125 -133 l-40 3 -3 119 c-1
66 0 126 2 133 7 18 60 16 97 -3z"/>
<path d="M2600 3396 c0 -8 10 -16 22 -18 42 -6 48 -39 48 -258 0 -219 -6 -252
-48 -258 -12 -2 -22 -10 -22 -18 0 -12 20 -14 123 -12 73 2 122 7 121 13 0 6
-9 12 -20 14 -43 8 -44 13 -44 261 0 248 1 253 44 261 11 2 21 10 24 17 3 9
-26 12 -122 12 -103 0 -126 -3 -126 -14z"/>
<path d="M3761 3168 c-98 -285 -104 -297 -142 -311 -16 -6 -29 -15 -29 -19 0
-4 52 -8 115 -8 70 0 115 4 115 10 0 6 -9 10 -20 10 -25 0 -68 20 -73 34 -2 6
10 49 27 96 l32 85 80 3 c57 2 84 -1 92 -10 15 -18 62 -147 62 -169 0 -14 -12
-22 -45 -31 -25 -7 -45 -16 -45 -20 0 -4 65 -8 145 -8 88 0 145 4 145 10 0 5
-11 12 -25 16 -14 3 -34 17 -44 30 -10 12 -58 136 -107 273 l-89 251 -55 0
-56 0 -83 -242z m150 37 c16 -43 29 -83 29 -87 0 -4 -31 -8 -70 -8 -38 0 -70
1 -70 3 0 4 46 136 55 160 13 31 26 14 56 -68z"/>
<path d="M705 2210 c-3 -25 -8 -60 -11 -77 -7 -44 13 -43 22 1 10 57 30 67
120 64 l79 -3 3 -215 c1 -118 0 -225 -3 -237 -6 -24 -52 -53 -85 -53 -11 0
-20 -4 -20 -10 0 -13 316 -14 324 -1 3 5 -11 11 -30 14 -74 12 -74 12 -74 274
l0 233 85 0 c93 0 103 -6 120 -75 12 -46 18 -5 10 69 l-6 61 -264 0 -265 0 -5
-45z"/>
<path d="M1340 2240 c0 -5 9 -10 20 -10 12 0 32 -11 45 -25 l25 -24 0 -218 c0
-241 -3 -255 -60 -267 -18 -3 -29 -10 -25 -16 8 -13 295 -14 295 -1 0 11 -25
21 -50 21 -40 0 -50 26 -50 131 l0 99 38 0 c38 0 40 -2 98 -96 32 -53 73 -109
91 -124 30 -27 105 -50 156 -50 22 1 22 1 2 15 -44 33 -75 70 -133 164 -34 54
-62 103 -62 107 0 5 14 17 30 26 90 51 73 201 -29 255 -41 21 -55 23 -218 23
-109 0 -173 -4 -173 -10z m298 -24 c40 -21 62 -66 62 -123 0 -92 -36 -133
-120 -133 l-40 0 0 135 0 135 38 0 c20 -1 47 -6 60 -14z"/>
<path d="M2020 2241 c0 -5 13 -12 30 -16 56 -12 60 -28 60 -260 0 -115 -3
-220 -6 -232 -6 -23 -49 -43 -90 -43 -13 0 -24 -4 -24 -10 0 -16 480 -13 484
3 3 6 7 42 10 80 5 67 -7 92 -19 38 -3 -16 -18 -41 -32 -55 -23 -24 -33 -26
-107 -26 -51 0 -87 5 -94 12 -8 8 -12 47 -12 110 l0 98 74 0 c79 0 106 -13
106 -51 0 -10 5 -19 10 -19 6 0 10 38 10 95 0 57 -4 95 -10 95 -5 0 -10 -8
-10 -18 0 -37 -32 -52 -108 -52 l-72 0 0 105 0 105 83 0 c94 0 111 -10 123
-68 4 -18 10 -32 15 -32 10 0 12 58 3 113 l-7 37 -208 0 c-121 0 -209 -4 -209
-9z"/>
<path d="M2600 2241 c0 -5 16 -15 35 -21 l35 -12 0 -239 c0 -226 -1 -240 -20
-259 -11 -11 -27 -20 -35 -20 -8 0 -15 -4 -15 -10 0 -6 45 -10 115 -10 63 0
115 4 115 8 0 5 -18 14 -40 21 -22 6 -44 20 -50 31 -12 22 -14 390 -2 389 4 0
97 -101 207 -225 165 -184 205 -224 226 -224 15 0 29 7 33 16 3 9 6 128 6 265
l0 250 35 15 c61 25 41 34 -75 34 -67 0 -110 -4 -110 -10 0 -5 9 -10 19 -10
10 0 29 -9 42 -19 23 -18 24 -26 27 -158 6 -237 25 -237 -183 -4 l-180 200
-92 1 c-51 0 -93 -4 -93 -9z"/>
<path d="M3360 2241 c0 -6 10 -11 23 -11 12 0 33 -7 45 -16 22 -15 22 -19 22
-253 0 -260 1 -255 -58 -267 -18 -4 -32 -11 -32 -16 0 -6 81 -8 213 -6 228 4
246 7 330 65 106 73 148 223 96 342 -25 60 -98 130 -155 151 -50 17 -484 27
-484 11z m413 -35 c81 -34 127 -120 127 -240 0 -174 -70 -255 -230 -264 -115
-7 -110 -20 -110 274 l0 244 90 0 c54 0 104 -6 123 -14z"/>
</g>
</svg>
